<svg xmlns="http://www.w3.org/2000/svg" width="206.944" height="40" viewBox="0 0 206.944 40">
    <g id="Group_40" data-name="Group 40" transform="translate(-62.326 -1641.741)">
        <g id="Group_33" data-name="Group 33" transform="translate(62.326 1641.741)">
            <path id="Path_77" data-name="Path 77"
                  d="M134.872,1641.741H116.566a3.142,3.142,0,0,0-3.008,2.237,13.609,13.609,0,0,1,3.3,1.663,12.9,12.9,0,0,1,5.265,7.619h5.781l-.183,2.448,1.985-1.443,1.382-1h3.782a3.141,3.141,0,0,0,3.142-3.141v-5.236A3.141,3.141,0,0,0,134.872,1641.741Zm-13.675,6.9a1.333,1.333,0,1,1,1.333-1.333A1.333,1.333,0,0,1,121.2,1648.64Zm5.333,0a1.333,1.333,0,1,1,1.333-1.333A1.333,1.333,0,0,1,126.53,1648.64Zm5.333,0a1.333,1.333,0,1,1,1.333-1.333A1.333,1.333,0,0,1,131.863,1648.64Z"
                  transform="translate(-91.945 -1641.741)" fill="#00e5b9"/>
            <path id="Path_78" data-name="Path 78"
                  d="M91.7,1704.542a3.382,3.382,0,0,1-1.577.388H87.8a3.411,3.411,0,0,1-3.407-3.407V1700.2a8.112,8.112,0,0,1-1.316,1.137v8.47a1.084,1.084,0,0,1-1.084,1.084H75.025a1.085,1.085,0,0,1-1.085-1.084v-8.47a8.128,8.128,0,0,1-1.315-1.137v1.323a3.411,3.411,0,0,1-3.407,3.408H66.894a3.381,3.381,0,0,1-1.577-.388,17.93,17.93,0,0,0-2.992,9.915,1.083,1.083,0,0,0,1.084,1.081h30.2a1.083,1.083,0,0,0,1.084-1.081,17.929,17.929,0,0,0-2.991-9.915Z"
                  transform="translate(-62.326 -1675.538)" fill="#006bff"/>
            <path id="Path_79" data-name="Path 79"
                  d="M68.486,1673.06h2.323a1.237,1.237,0,0,0,1.239-1.238v-11.46a3.408,3.408,0,0,1,3.407-3.407h1.162a2.4,2.4,0,0,0,2.4-2.4,1.084,1.084,0,0,1,2.168,0,2.4,2.4,0,0,0,2.4,2.4h1.163a3.408,3.408,0,0,1,3.407,3.407v11.46a1.239,1.239,0,0,0,1.239,1.238h2.323a6.636,6.636,0,0,0,1.084-11.283v-1.416a11.531,11.531,0,0,0-11.537-11.537H78.939A11.532,11.532,0,0,0,67.4,1660.361v1.416a32.251,32.251,0,0,1-2.323,7.876A3.408,3.408,0,0,0,68.486,1673.06Z"
                  transform="translate(-63.918 -1645.836)" fill="#006bff"/>
            <path id="Path_80" data-name="Path 80" d="M95,1705.407v6.327h4.8v-6.327a8.068,8.068,0,0,1-4.8,0Z"
                  transform="translate(-81.214 -1678.549)" fill="#00e5b9"/>
            <path id="Path_81" data-name="Path 81"
                  d="M97.268,1671.022H96.105a4.559,4.559,0,0,1-3.483-1.616,4.561,4.561,0,0,1-3.483,1.616H87.977a1.239,1.239,0,0,0-1.239,1.238v4.646a5.884,5.884,0,1,0,11.768,0v-4.646A1.239,1.239,0,0,0,97.268,1671.022Zm-4.743,8.962a2.129,2.129,0,0,1-2.129-2.129h4.258A2.129,2.129,0,0,1,92.525,1679.984Z"
                  transform="translate(-76.439 -1657.735)" fill="#006bff"/>
        </g>
        <g id="Group_39" data-name="Group 39" transform="translate(99.992 1662.624)">
            <g id="Group_34" data-name="Group 34" transform="translate(26.201 0.683)">
                <path id="Path_82" data-name="Path 82"
                      d="M224.493,1706.062H219.31l-.916,2.377h-4.677l5.963-13.641H224.2l5.963,13.641h-4.755Zm-1.267-3.312-1.325-3.43-1.325,3.43Z"
                      transform="translate(-213.717 -1693.981)" fill="#575756"/>
                <path id="Path_83" data-name="Path 83"
                      d="M263.83,1697.137a4.867,4.867,0,0,1,1.871,1.929,6.5,6.5,0,0,1,0,5.837,4.857,4.857,0,0,1-1.871,1.939,5.125,5.125,0,0,1-2.582.672,3.716,3.716,0,0,1-2.923-1.072v.877h-4.19v-14.459h4.4v4.521a3.715,3.715,0,0,1,2.709-.916A5.117,5.117,0,0,1,263.83,1697.137Zm-2.387,6.392a2.274,2.274,0,0,0,.487-1.549,2.235,2.235,0,0,0-.487-1.539,1.7,1.7,0,0,0-2.495,0,2.232,2.232,0,0,0-.487,1.539,2.272,2.272,0,0,0,.487,1.549,1.679,1.679,0,0,0,2.495,0Z"
                      transform="translate(-237.084 -1692.859)" fill="#575756"/>
                <path id="Path_84" data-name="Path 84"
                      d="M288.14,1711.743a5.471,5.471,0,0,1-2.211-1.968,5.5,5.5,0,0,1,0-5.709,5.4,5.4,0,0,1,2.211-1.959,7.634,7.634,0,0,1,6.392,0,5.33,5.33,0,0,1,2.2,1.959,5.557,5.557,0,0,1,0,5.709,5.4,5.4,0,0,1-2.2,1.968,7.534,7.534,0,0,1-6.392,0Zm4.433-3.274a2.274,2.274,0,0,0,.487-1.549,2.235,2.235,0,0,0-.487-1.54,1.7,1.7,0,0,0-2.495,0,2.233,2.233,0,0,0-.487,1.54,2.271,2.271,0,0,0,.487,1.549,1.679,1.679,0,0,0,2.495,0Z"
                      transform="translate(-255.003 -1697.8)" fill="#575756"/>
                <path id="Path_85" data-name="Path 85"
                      d="M328.919,1701.6v8.536a5.865,5.865,0,0,1-1.685,4.57,6.9,6.9,0,0,1-4.8,1.53,12.435,12.435,0,0,1-2.981-.341,7.514,7.514,0,0,1-2.358-.984l1.481-3a5.108,5.108,0,0,0,1.579.76,6.259,6.259,0,0,0,1.832.292,2.764,2.764,0,0,0,1.929-.565,2.16,2.16,0,0,0,.6-1.656v-.2a3.711,3.711,0,0,1-2.943,1.13,5.288,5.288,0,0,1-2.543-.633,4.8,4.8,0,0,1-1.881-1.812,5.524,5.524,0,0,1,0-5.388,4.822,4.822,0,0,1,1.881-1.8,5.29,5.29,0,0,1,2.543-.633,3.57,3.57,0,0,1,3.157,1.4V1701.6Zm-4.881,6.168a1.607,1.607,0,0,0,.516-1.237,1.577,1.577,0,0,0-.516-1.228,1.855,1.855,0,0,0-1.3-.468,1.879,1.879,0,0,0-1.315.468,1.576,1.576,0,0,0-.516,1.228,1.592,1.592,0,0,0,.526,1.237,1.87,1.87,0,0,0,1.305.478A1.835,1.835,0,0,0,324.037,1707.767Z"
                      transform="translate(-273.108 -1697.8)" fill="#575756"/>
                <path id="Path_86" data-name="Path 86"
                      d="M358.969,1702.662a4.8,4.8,0,0,1,1.481,3.868v5.729h-4.092v-1.4a3.01,3.01,0,0,1-3.021,1.6,4.82,4.82,0,0,1-2.153-.439,3.089,3.089,0,0,1-1.8-2.874,2.711,2.711,0,0,1,1.208-2.4,6.6,6.6,0,0,1,3.664-.818h1.773q-.215-1.247-2.007-1.247a5.027,5.027,0,0,0-1.461.224,4.1,4.1,0,0,0-1.266.614l-1.4-2.9a7.743,7.743,0,0,1,2.212-.887,10.685,10.685,0,0,1,2.582-.321A6.453,6.453,0,0,1,358.969,1702.662Zm-3.468,6.889a1.465,1.465,0,0,0,.546-.76v-.74h-1.091q-1.345,0-1.345.9a.776.776,0,0,0,.282.614,1.139,1.139,0,0,0,.77.244A1.452,1.452,0,0,0,355.5,1709.551Z"
                      transform="translate(-292.149 -1697.8)" fill="#575756"/>
                <path id="Path_87" data-name="Path 87"
                      d="M391.756,1692.859v14.459h-4.19v-.877a3.717,3.717,0,0,1-2.923,1.072,5.124,5.124,0,0,1-2.582-.672,4.851,4.851,0,0,1-1.871-1.939,6.5,6.5,0,0,1,0-5.837,4.86,4.86,0,0,1,1.871-1.929,5.116,5.116,0,0,1,2.582-.672,3.715,3.715,0,0,1,2.708.916v-4.521Zm-4.813,10.669a2.272,2.272,0,0,0,.487-1.549,2.232,2.232,0,0,0-.487-1.539,1.7,1.7,0,0,0-2.495,0,2.234,2.234,0,0,0-.487,1.539,2.274,2.274,0,0,0,.487,1.549,1.679,1.679,0,0,0,2.495,0Z"
                      transform="translate(-309.56 -1692.859)" fill="#575756"/>
                <path id="Path_88" data-name="Path 88"
                      d="M414.843,1711.743a5.474,5.474,0,0,1-2.212-1.968,5.5,5.5,0,0,1,0-5.709,5.4,5.4,0,0,1,2.212-1.959,7.634,7.634,0,0,1,6.392,0,5.332,5.332,0,0,1,2.2,1.959,5.557,5.557,0,0,1,0,5.709,5.406,5.406,0,0,1-2.2,1.968,7.534,7.534,0,0,1-6.392,0Zm4.433-3.274a2.273,2.273,0,0,0,.487-1.549,2.235,2.235,0,0,0-.487-1.54,1.7,1.7,0,0,0-2.495,0,2.233,2.233,0,0,0-.487,1.54,2.272,2.272,0,0,0,.487,1.549,1.679,1.679,0,0,0,2.495,0Z"
                      transform="translate(-328.254 -1697.8)" fill="#575756"/>
            </g>
            <g id="Group_36" data-name="Group 36" transform="translate(124.77)">
                <g id="Group_35" data-name="Group 35">
                    <path id="Path_89" data-name="Path 89"
                          d="M450.521,1697.792v3.605h6.315v2.533h-6.315v4.97h-3.156v-13.641h10.308v2.533Z"
                          transform="translate(-447.365 -1693.564)" fill="#878787"/>
                    <path id="Path_90" data-name="Path 90"
                          d="M482.716,1698.059a4.439,4.439,0,0,1,1.306,3.5v5.983h-2.846v-1.306a3.386,3.386,0,0,1-3.2,1.461,4.962,4.962,0,0,1-2.095-.409,3.126,3.126,0,0,1-1.355-1.131,2.941,2.941,0,0,1-.468-1.637,2.732,2.732,0,0,1,1.1-2.3,5.614,5.614,0,0,1,3.4-.838h2.416a1.938,1.938,0,0,0-.6-1.53,2.662,2.662,0,0,0-1.812-.536,5.3,5.3,0,0,0-1.646.263,4.363,4.363,0,0,0-1.374.712l-1.091-2.124a6.6,6.6,0,0,1,2.055-.936,9.217,9.217,0,0,1,2.465-.331A5.459,5.459,0,0,1,482.716,1698.059Zm-2.592,7.229a1.971,1.971,0,0,0,.858-1.062v-1.072H478.9q-1.871,0-1.871,1.227a1.093,1.093,0,0,0,.458.926,2.061,2.061,0,0,0,1.257.341A2.644,2.644,0,0,0,480.124,1705.288Zm.019-12.384h3.274l-3.527,2.806h-2.378Z"
                          transform="translate(-462.8 -1692.203)" fill="#878787"/>
                    <path id="Path_91" data-name="Path 91"
                          d="M505.445,1712.477a5.172,5.172,0,0,1-2.085-1.92,5.285,5.285,0,0,1,2.085-7.492,6.449,6.449,0,0,1,3.011-.692,5.837,5.837,0,0,1,2.894.692,4.1,4.1,0,0,1,1.8,1.978l-2.358,1.267a2.578,2.578,0,0,0-2.358-1.442,2.668,2.668,0,0,0-1.968.779,3.284,3.284,0,0,0,0,4.248,2.668,2.668,0,0,0,1.968.78,2.551,2.551,0,0,0,2.358-1.442l2.358,1.286a4.187,4.187,0,0,1-1.8,1.949,5.771,5.771,0,0,1-2.894.7A6.445,6.445,0,0,1,505.445,1712.477Z"
                          transform="translate(-479.304 -1697.677)" fill="#878787"/>
                    <path id="Path_92" data-name="Path 92"
                          d="M531.4,1694.145a1.65,1.65,0,0,1,0-2.417,1.927,1.927,0,0,1,1.364-.487,1.978,1.978,0,0,1,1.364.467,1.5,1.5,0,0,1,.526,1.169,1.653,1.653,0,0,1-.526,1.257,1.905,1.905,0,0,1-1.364.5A1.928,1.928,0,0,1,531.4,1694.145Zm-.156,1.948h3.04v10.484h-3.04Z"
                          transform="translate(-495.646 -1691.241)" fill="#878787"/>
                    <path id="Path_93" data-name="Path 93" d="M545.66,1693.319h3.04v14.46h-3.04Z"
                          transform="translate(-504.192 -1692.442)" fill="#878787"/>
                </g>
            </g>
            <g id="Group_38" data-name="Group 38" transform="translate(0 1.695)">
                <g id="Group_37" data-name="Group 37">
                    <path id="Path_94" data-name="Path 94"
                          d="M155.975,1697.831H151.61v-2.573H163.5v2.573h-4.365V1708.9h-3.157Z"
                          transform="translate(-151.61 -1695.259)" fill="#878787"/>
                    <path id="Path_95" data-name="Path 95"
                          d="M193.226,1702.743v10.484h-2.884v-1.247a4.028,4.028,0,0,1-1.442,1.042,4.537,4.537,0,0,1-1.812.36,4.462,4.462,0,0,1-3.274-1.188,4.738,4.738,0,0,1-1.208-3.528v-5.924h3.04v5.475q0,2.534,2.124,2.534a2.282,2.282,0,0,0,1.754-.712,3,3,0,0,0,.663-2.114v-5.184Z"
                          transform="translate(-169.529 -1699.586)" fill="#878787"/>
                </g>
            </g>
        </g>
    </g>
</svg>
